<svg width="51" height="51" viewBox="0 0 51 51" fill="none" xmlns="http://www.w3.org/2000/svg">
<path d="M25.5 0C20.4566 0 15.5264 1.49555 11.333 4.29752C7.13952 7.0995 3.87112 11.0821 1.94108 15.7416C0.0110487 20.4011 -0.493936 25.5283 0.489987 30.4748C1.47391 35.4213 3.90255 39.965 7.46879 43.5312C11.035 47.0974 15.5787 49.5261 20.5252 50.51C25.4717 51.4939 30.5989 50.9889 35.2584 49.0589C39.9179 47.1289 43.9005 43.8605 46.7025 39.667C49.5044 35.4736 51 30.5434 51 25.5C51 22.1513 50.3404 18.8354 49.0589 15.7416C47.7774 12.6478 45.8991 9.83667 43.5312 7.46877C41.1633 5.10088 38.3522 3.22257 35.2584 1.94107C32.1646 0.659577 28.8487 0 25.5 0V0ZM25.5 5.1C30.7396 5.09791 35.7759 7.12707 39.5505 10.761C35.6542 13.0463 31.5253 14.9098 27.234 16.32C25.0983 12.6399 22.6498 9.15052 19.9155 5.8905C21.731 5.36774 23.6107 5.10166 25.5 5.1V5.1ZM15.0195 8.0325C17.6911 11.0887 20.0888 14.3738 22.185 17.85C17.1796 19.0929 12.0424 19.7265 6.88501 19.737H5.96701C7.41338 14.8401 10.6435 10.6636 15.0195 8.0325V8.0325ZM10.2 39.0405C6.88183 35.3143 5.06451 30.4893 5.10001 25.5C5.10001 25.245 5.10001 24.99 5.10001 24.7605H6.83401C12.8708 24.7065 18.8736 23.849 24.684 22.2105C25.5 23.766 26.265 25.3725 27.0045 27.03C23.0303 28.431 19.329 30.5103 16.065 33.1755L15.3 33.7875C13.4822 35.4201 11.7782 37.1752 10.2 39.0405V39.0405ZM25.5 45.9C21.4355 45.909 17.4629 44.6914 14.1015 42.4065C15.343 40.9825 16.6715 39.637 18.0795 38.3775L18.8955 37.689C21.9126 35.1515 25.3699 33.1895 29.0955 31.9005C30.6289 36.0468 31.8228 40.3108 32.6655 44.6505C30.37 45.4886 27.9437 45.9117 25.5 45.9V45.9ZM37.3065 42.1005C36.4722 38.2412 35.3818 34.4418 34.0425 30.7275H34.9095C35.01 30.7026 35.115 30.7026 35.2155 30.7275H35.496H35.751H36.975C39.6585 30.7352 42.3218 31.192 44.8545 32.079C43.463 36.1344 40.8201 39.6434 37.3065 42.1005V42.1005ZM36.975 25.5C36.4395 25.5 35.904 25.5 35.394 25.5C35.0638 25.4584 34.7297 25.4584 34.3995 25.5C33.7064 25.5426 33.0166 25.6277 32.334 25.755H32.079C31.3395 24.0465 30.5745 22.389 29.733 20.655C34.2991 19.0869 38.6845 17.0352 42.8145 14.535C44.8633 17.8229 45.9335 21.6262 45.9 25.5C45.9 25.9335 45.9 26.367 45.9 26.8005C43.01 25.9085 39.9993 25.4698 36.975 25.5V25.5Z" fill="black"/>
</svg>
