<svg width="57" height="56" viewBox="0 0 57 56" fill="none" xmlns="http://www.w3.org/2000/svg">
<path d="M28.4999 0C21.7325 0.000282676 15.1861 2.42617 10.0319 6.84359C4.87773 11.261 1.45215 17.3817 0.368105 24.1105C-0.715936 30.8393 0.612304 37.7371 4.11516 43.5697C7.61802 49.4023 13.0669 53.789 19.4869 55.945C20.9119 56.1963 21.4462 55.3351 21.4462 54.5814C21.4462 53.8996 21.4106 51.6388 21.4106 49.2345C14.25 50.5623 12.3975 47.4762 11.8275 45.8614C11.195 44.2908 10.1924 42.8991 8.90626 41.8063C7.90877 41.268 6.48378 39.9403 8.87061 39.9044C9.782 40.004 10.6561 40.3235 11.4189 40.8357C12.1817 41.3479 12.8106 42.0378 13.2525 42.8469C13.6423 43.5523 14.1664 44.1732 14.7949 44.6742C15.4233 45.1752 16.1437 45.5463 16.9148 45.7663C17.6859 45.9863 18.4925 46.0509 19.2884 45.9564C20.0843 45.8618 20.8539 45.61 21.553 45.2154C21.6764 43.7559 22.3221 42.3913 23.3699 41.3757C17.0287 40.658 10.4025 38.1819 10.4025 27.2011C10.3625 24.3479 11.4077 21.5874 13.3237 19.4858C12.4524 17.006 12.5544 14.2847 13.6087 11.8781C13.6087 11.8781 15.9955 11.1245 21.4462 14.8207C26.1096 13.5287 31.0327 13.5287 35.6961 14.8207C41.1466 11.0886 43.5335 11.8781 43.5335 11.8781C44.588 14.2846 44.69 17.006 43.8185 19.4858C45.7404 21.5838 46.7865 24.3467 46.7397 27.2011C46.7397 38.2178 40.0779 40.658 33.7367 41.3757C34.4169 42.0702 34.9407 42.9039 35.2726 43.8203C35.6046 44.7367 35.7368 45.7143 35.6605 46.6868C35.6605 50.5265 35.6248 53.6126 35.6248 54.5815C35.6248 55.3351 36.1592 56.2322 37.5842 55.9452C43.9928 53.7716 49.426 49.3745 52.914 43.539C56.4019 37.7034 57.7175 30.8091 56.626 24.0868C55.5344 17.3646 52.1068 11.2518 46.9548 6.83976C41.8029 2.42771 35.262 0.00354519 28.4999 0V0Z" fill="black"/>
</svg>
