<svg width="49" height="49" viewBox="0 0 49 49" fill="none" xmlns="http://www.w3.org/2000/svg">
<path d="M37.583 8.477C37.0015 8.477 36.4331 8.64943 35.9496 8.97248C35.4661 9.29553 35.0893 9.7547 34.8668 10.2919C34.6443 10.8291 34.5861 11.4203 34.6995 11.9906C34.8129 12.5609 35.0929 13.0847 35.5041 13.4959C35.9153 13.9071 36.4391 14.1871 37.0094 14.3005C37.5797 14.4139 38.1709 14.3557 38.7081 14.1332C39.2453 13.9107 39.7045 13.5339 40.0275 13.0504C40.3506 12.5669 40.523 11.9985 40.523 11.417C40.523 10.6373 40.2133 9.88946 39.6619 9.33811C39.1105 8.78675 38.3627 8.477 37.583 8.477V8.477ZM48.853 14.406C48.8054 12.3732 48.4246 10.362 47.726 8.4525C47.103 6.81867 46.1335 5.33923 44.884 4.116C43.6708 2.86019 42.1879 1.89673 40.5475 1.2985C38.643 0.578594 36.6296 0.189164 34.594 0.147C31.997 -1.36904e-07 31.164 0 24.5 0C17.836 0 17.003 -1.36904e-07 14.406 0.147C12.3704 0.189164 10.357 0.578594 8.4525 1.2985C6.81511 1.90279 5.33349 2.86542 4.116 4.116C2.86019 5.32919 1.89673 6.81208 1.2985 8.4525C0.578594 10.357 0.189164 12.3704 0.147 14.406C-1.36904e-07 17.003 0 17.836 0 24.5C0 31.164 -1.36904e-07 31.997 0.147 34.594C0.189164 36.6296 0.578594 38.643 1.2985 40.5475C1.89673 42.1879 2.86019 43.6708 4.116 44.884C5.33349 46.1346 6.81511 47.0972 8.4525 47.7015C10.357 48.4214 12.3704 48.8108 14.406 48.853C17.003 49 17.836 49 24.5 49C31.164 49 31.997 49 34.594 48.853C36.6296 48.8108 38.643 48.4214 40.5475 47.7015C42.1879 47.1033 43.6708 46.1398 44.884 44.884C46.139 43.6653 47.1094 42.1846 47.726 40.5475C48.4246 38.638 48.8054 36.6268 48.853 34.594C48.853 31.997 49 31.164 49 24.5C49 17.836 49 17.003 48.853 14.406V14.406ZM44.443 34.3C44.4252 35.8552 44.1435 37.3961 43.61 38.857C43.2188 39.9232 42.5905 40.8866 41.7725 41.6745C40.9778 42.4842 40.0164 43.1113 38.955 43.512C37.4941 44.0455 35.9532 44.3272 34.398 44.345C31.948 44.4675 31.0415 44.492 24.598 44.492C18.1545 44.492 17.248 44.492 14.798 44.345C13.1832 44.3752 11.5753 44.1266 10.045 43.61C9.03017 43.1888 8.11282 42.5633 7.35 41.7725C6.53682 40.9854 5.91637 40.0212 5.537 38.955C4.93885 37.4731 4.60709 35.8973 4.557 34.3C4.557 31.85 4.41 30.9435 4.41 24.5C4.41 18.0565 4.41 17.15 4.557 14.7C4.56798 13.1101 4.85823 11.5345 5.4145 10.045C5.84582 9.01088 6.50785 8.08906 7.35 7.35C8.09434 6.50761 9.01426 5.83858 10.045 5.39C11.5384 4.85111 13.1124 4.56945 14.7 4.557C17.15 4.557 18.0565 4.41 24.5 4.41C30.9435 4.41 31.85 4.41 34.3 4.557C35.8552 4.57484 37.3961 4.8565 38.857 5.39C39.9704 5.8032 40.9696 6.47497 41.7725 7.35C42.5754 8.10259 43.2027 9.0227 43.61 10.045C44.1545 11.5369 44.4364 13.1119 44.443 14.7C44.5655 17.15 44.59 18.0565 44.59 24.5C44.59 30.9435 44.5655 31.85 44.443 34.3ZM24.5 11.9315C22.0152 11.9363 19.5877 12.6776 17.524 14.0616C15.4604 15.4456 13.8532 17.4102 12.9057 19.7072C11.9582 22.0042 11.7128 24.5305 12.2005 26.967C12.6882 29.4034 13.8872 31.6406 15.6459 33.3959C17.4046 35.1512 19.6441 36.3458 22.0815 36.8288C24.5189 37.3117 27.0447 37.0614 29.3399 36.1094C31.6351 35.1574 33.5966 33.5465 34.9765 31.4801C36.3565 29.4138 37.093 26.9848 37.093 24.5C37.0962 22.8465 36.7725 21.2087 36.1405 19.6807C35.5085 18.1528 34.5807 16.7649 33.4103 15.5968C32.24 14.4288 30.8503 13.5036 29.3211 12.8746C27.7919 12.2455 26.1535 11.925 24.5 11.9315V11.9315ZM24.5 32.6585C22.8864 32.6585 21.309 32.18 19.9674 31.2835C18.6257 30.3871 17.58 29.1129 16.9625 27.6221C16.345 26.1314 16.1835 24.491 16.4983 22.9084C16.8131 21.3258 17.5901 19.8721 18.7311 18.7311C19.8721 17.5901 21.3258 16.8131 22.9084 16.4983C24.491 16.1835 26.1314 16.345 27.6221 16.9625C29.1129 17.58 30.3871 18.6257 31.2835 19.9674C32.18 21.309 32.6585 22.8864 32.6585 24.5C32.6585 25.5714 32.4475 26.6323 32.0375 27.6221C31.6275 28.612 31.0265 29.5113 30.2689 30.2689C29.5113 31.0265 28.612 31.6275 27.6221 32.0375C26.6323 32.4475 25.5714 32.6585 24.5 32.6585V32.6585Z" fill="black"/>
</svg>
