<svg width="49" height="40" viewBox="0 0 49 40" fill="none" xmlns="http://www.w3.org/2000/svg">
<path d="M49 4.79227C47.1584 5.59342 45.2109 6.12304 43.218 6.36463C45.3205 5.10507 46.8961 3.12356 47.6525 0.787656C45.6767 1.96708 43.5139 2.79806 41.258 3.24447C39.7501 1.60472 37.7422 0.513221 35.549 0.141148C33.3559 -0.230924 31.1016 0.13748 29.1398 1.18858C27.1779 2.23969 25.6195 3.91403 24.7088 5.94903C23.7982 7.98402 23.5869 10.2646 24.108 12.433C20.1131 12.2303 16.2054 11.1873 12.6387 9.37144C9.07203 7.55562 5.92617 5.00772 3.4055 1.89322C2.52139 3.44143 2.05682 5.19475 2.058 6.97884C2.05486 8.63567 2.46033 10.2676 3.2383 11.7293C4.01627 13.1909 5.1426 14.437 6.517 15.3566C4.91954 15.313 3.35622 14.8832 1.96 14.1036V14.2264C1.97197 16.5479 2.78319 18.7939 4.25642 20.5846C5.72966 22.3753 7.77448 23.6008 10.045 24.0537C9.17098 24.3204 8.26354 24.4611 7.35 24.4714C6.71763 24.464 6.08683 24.4065 5.4635 24.2994C6.11008 26.2963 7.36133 28.0415 9.04313 29.292C10.7249 30.5426 12.7537 31.2364 14.847 31.2768C11.3121 34.0659 6.94791 35.5881 2.45 35.6008C1.63105 35.6035 0.812752 35.5542 0 35.4534C4.59235 38.4267 9.94409 40.0052 15.4105 39.9985C19.1827 40.0377 22.925 39.3229 26.4186 37.8956C29.9123 36.4684 33.0873 34.3573 35.7582 31.6858C38.4292 29.0143 40.5425 25.8359 41.9748 22.3362C43.407 18.8365 44.1295 15.0857 44.1 11.3028C44.1 10.8852 44.1 10.4429 44.1 10.0007C46.0225 8.56302 47.6806 6.80053 49 4.79227V4.79227Z" fill="black"/>
</svg>
